<svg width="185" height="194" viewBox="0 0 185 194" fill="none" xmlns="http://www.w3.org/2000/svg">
<path d="M156.798 9.66514C179.704 18.0158 194.598 19.4898 177.798 81.0303C177.798 48.5348 141.398 32.1215 121.798 43.1352C108.365 50.6838 102.199 64.4025 107.799 81.0303C113.398 97.658 128.798 120.543 127.398 148.614C125.998 176.684 97.9987 194.93 90.9986 193.312C81.5437 191.127 64.3991 177.873 53.1993 165.242C45.3211 156.356 27.9996 133.175 25.1997 124.754C34.8276 135.228 62.9991 151.635 72.799 145.807C95.0409 132.578 70.2295 93.0274 62.9991 75.6307C55.9992 58.7884 50.3993 40.5426 53.1993 27.9109C55.9992 15.2792 65.5249 4.79677 85.3988 1.02956C104.476 -2.58659 141.398 4.05105 156.798 9.66514Z" fill="#0C3687"/>
<path d="M127.46 164.212C129.867 162.198 131.373 154.086 127.46 141.756C120.788 120.732 63.0608 113.685 35.0612 102.457C8.46154 94.0359 2.86161 84.4258 0.0616499 42.1056C-1.88412 12.6963 42.82 6.38794 50.461 2.80704C46.8505 5.18312 31.8268 25.9329 37.8611 49.1232C43.4172 70.4754 97.2738 66.2 130.26 80.0007C147.143 87.0645 173.222 98.7692 159.659 123.724C149.86 141.756 138.66 154.839 127.46 164.212Z" fill="#2BC65F"/>
</svg>
