<svg width="185" height="243" viewBox="0 0 185 243" fill="none" xmlns="http://www.w3.org/2000/svg">
<path d="M108.869 236.128C106.114 236.128 103.953 235.657 102.385 234.714C100.817 233.77 100.033 232.479 100.033 230.84C100.033 230.054 100.357 229.436 101.007 228.987C101.679 228.538 102.62 228.302 103.829 228.28C103.964 229.605 104.468 230.627 105.341 231.345C106.237 232.064 107.436 232.423 108.937 232.423C111.692 232.423 113.069 231.401 113.069 229.358C113.069 228.549 112.689 227.887 111.927 227.37C111.188 226.854 109.889 226.326 108.029 225.787C105.386 225.046 103.449 224.103 102.217 222.958C100.985 221.79 100.369 220.297 100.369 218.478C100.369 216.434 101.153 214.829 102.721 213.661C104.311 212.471 106.473 211.876 109.205 211.876C111.401 211.876 113.282 212.403 114.85 213.459C116.418 214.492 117.493 215.94 118.076 217.804C117.695 218.186 117.168 218.523 116.496 218.815C115.824 219.106 115.231 219.252 114.716 219.252C114.312 219.252 113.999 219.174 113.775 219.017C113.551 218.837 113.316 218.511 113.069 218.04C112.621 217.164 112.106 216.535 111.524 216.153C110.941 215.772 110.169 215.581 109.205 215.581C106.809 215.581 105.61 216.378 105.61 217.972C105.61 218.601 105.733 219.118 105.98 219.522C106.226 219.904 106.652 220.263 107.257 220.6C107.861 220.914 108.78 221.273 110.012 221.678C112.252 222.419 113.965 223.104 115.152 223.732C116.34 224.339 117.168 225.001 117.639 225.72C118.132 226.438 118.378 227.325 118.378 228.381C118.378 229.908 117.975 231.255 117.168 232.423C116.384 233.591 115.276 234.5 113.842 235.151C112.409 235.803 110.751 236.128 108.869 236.128Z" fill="#0C3687"/>
<path d="M136.273 228.819C136.273 230.66 136.34 231.985 136.475 232.794C136.632 233.602 136.934 234.298 137.382 234.882C136.912 235.219 136.307 235.5 135.568 235.724C134.828 235.926 134.156 236.027 133.552 236.027C132.992 236.027 132.544 235.825 132.208 235.421C131.872 235.017 131.625 234.377 131.468 233.501C130.864 234.444 130.147 235.118 129.318 235.522C128.489 235.926 127.414 236.128 126.093 236.128C124.457 236.128 123.136 235.69 122.128 234.815C121.12 233.916 120.616 232.749 120.616 231.311C120.616 229.29 121.456 227.786 123.136 226.798C124.838 225.787 127.56 225.181 131.3 224.979V223.227C131.3 222.306 131.054 221.622 130.561 221.172C130.091 220.723 129.363 220.499 128.377 220.499C127.661 220.499 126.944 220.645 126.227 220.937C125.533 221.206 124.67 221.689 123.64 222.385C123.528 222.475 123.371 222.52 123.169 222.52C122.766 222.52 122.329 222.25 121.859 221.711C121.411 221.172 121.008 220.465 120.649 219.589C121.523 218.826 122.744 218.197 124.312 217.703C125.902 217.186 127.47 216.928 129.016 216.928C131.345 216.928 133.137 217.478 134.392 218.579C135.646 219.657 136.273 221.206 136.273 223.227V228.819ZM127.84 232.895C128.512 232.895 129.128 232.659 129.688 232.187C130.27 231.716 130.808 230.986 131.3 229.998V227.505C129.441 227.572 128.03 227.887 127.067 228.448C126.126 228.987 125.656 229.762 125.656 230.773C125.656 231.424 125.857 231.94 126.261 232.322C126.664 232.704 127.19 232.895 127.84 232.895Z" fill="#0C3687"/>
<path d="M148.079 212.414C147.474 212.414 147.004 212.65 146.668 213.122C146.354 213.593 146.197 214.267 146.197 215.143V217.265H149.691V220.364H146.197V235.791H141.224V220.364H138.436V217.265H141.224V215.109C141.224 213.2 141.717 211.73 142.703 210.697C143.711 209.641 145.144 209.113 147.004 209.113C148.28 209.113 149.3 209.327 150.061 209.753C150.845 210.158 151.237 210.697 151.237 211.37C151.237 211.662 151.192 211.954 151.103 212.246C151.013 212.515 150.89 212.74 150.733 212.92C149.972 212.583 149.087 212.414 148.079 212.414Z" fill="#0C3687"/>
<path d="M169.12 225.316C169.12 225.63 169.064 226.337 168.952 227.438H157.058C157.17 229.144 157.573 230.469 158.267 231.413C158.984 232.356 159.914 232.827 161.056 232.827C161.571 232.827 161.997 232.76 162.333 232.625C162.691 232.49 163.05 232.255 163.408 231.918C163.789 231.558 164.282 230.986 164.886 230.2C164.998 230.02 165.234 229.93 165.592 229.93C165.973 229.93 166.432 230.065 166.97 230.335C167.53 230.582 168.123 230.941 168.75 231.413C167.294 234.556 164.73 236.128 161.056 236.128C158.234 236.128 156.016 235.275 154.403 233.568C152.791 231.839 151.984 229.481 151.984 226.495C151.984 224.541 152.343 222.845 153.059 221.408C153.799 219.971 154.84 218.871 156.184 218.107C157.55 217.321 159.163 216.928 161.022 216.928C163.598 216.928 165.592 217.658 167.003 219.118C168.414 220.577 169.12 222.643 169.12 225.316ZM164.08 224.608C164.08 221.599 163.027 220.095 160.922 220.095C159.846 220.095 158.984 220.476 158.334 221.24C157.685 222.003 157.282 223.126 157.125 224.608H164.08Z" fill="#0C3687"/>
<path d="M156.798 9.66514C179.704 18.0158 194.598 19.4898 177.798 81.0303C177.798 48.5348 141.398 32.1215 121.798 43.1352C108.365 50.6838 102.199 64.4025 107.799 81.0303C113.398 97.658 128.798 120.543 127.398 148.614C125.998 176.684 97.9987 194.93 90.9986 193.312C81.5437 191.127 64.3991 177.873 53.1993 165.242C45.3211 156.356 27.9996 133.175 25.1997 124.754C34.8276 135.228 62.9991 151.635 72.799 145.807C95.0409 132.578 70.2295 93.0274 62.9991 75.6307C55.9992 58.7884 50.3993 40.5426 53.1993 27.9109C55.9992 15.2792 65.5249 4.79677 85.3988 1.02956C104.476 -2.58659 141.398 4.05105 156.798 9.66514Z" fill="#0C3687"/>
<path d="M127.46 164.212C129.867 162.198 131.373 154.086 127.46 141.756C120.788 120.732 63.0608 113.685 35.0612 102.457C8.46154 94.0359 2.86161 84.4258 0.0616499 42.1056C-1.88412 12.6963 42.82 6.38794 50.461 2.80704C46.8505 5.18312 31.8268 25.9329 37.8611 49.1232C43.4172 70.4754 97.2738 66.2 130.26 80.0007C147.143 87.0645 173.222 98.7692 159.659 123.724C149.86 141.756 138.66 154.839 127.46 164.212Z" fill="#2BC65F"/>
<path d="M27.9548 236.128C25.1997 236.128 23.0381 235.657 21.4701 234.714C19.9021 233.77 19.1182 232.479 19.1182 230.84C19.1182 230.054 19.4429 229.436 20.0925 228.987C20.7645 228.538 21.7053 228.302 22.9149 228.28C23.0493 229.605 23.5533 230.627 24.4269 231.345C25.3229 232.064 26.5213 232.423 28.022 232.423C30.7772 232.423 32.1548 231.401 32.1548 229.358C32.1548 228.549 31.774 227.887 31.0124 227.37C30.2732 226.854 28.974 226.326 27.1148 225.787C24.4717 225.046 22.5341 224.103 21.3021 222.958C20.0701 221.79 19.4541 220.297 19.4541 218.478C19.4541 216.434 20.2381 214.829 21.8061 213.661C23.3965 212.471 25.5581 211.876 28.2908 211.876C30.486 211.876 32.3676 212.403 33.9356 213.459C35.5035 214.492 36.5787 215.94 37.1611 217.804C36.7803 218.186 36.2539 218.523 35.5819 218.815C34.9099 219.106 34.3163 219.252 33.8012 219.252C33.398 219.252 33.0844 219.174 32.8604 219.017C32.6364 218.837 32.4012 218.511 32.1548 218.04C31.7068 217.164 31.1916 216.535 30.6092 216.153C30.0268 215.772 29.254 215.581 28.2908 215.581C25.8941 215.581 24.6957 216.378 24.6957 217.972C24.6957 218.601 24.8189 219.118 25.0653 219.522C25.3117 219.904 25.7373 220.263 26.3421 220.6C26.9468 220.914 27.8652 221.273 29.0972 221.678C31.3372 222.419 33.0508 223.104 34.2379 223.732C35.4251 224.339 36.2539 225.001 36.7243 225.72C37.2171 226.438 37.4635 227.325 37.4635 228.381C37.4635 229.908 37.0603 231.255 36.2539 232.423C35.4699 233.591 34.3611 234.5 32.9276 235.152C31.494 235.803 29.8364 236.128 27.9548 236.128Z" fill="#2BC65F"/>
<path d="M50.8563 232.524C51.1027 232.592 51.2931 232.737 51.4275 232.962C51.5619 233.187 51.6291 233.456 51.6291 233.77C51.6291 234.242 51.4835 234.624 51.1923 234.916C50.8339 235.275 50.2403 235.567 49.4116 235.792C48.6052 236.016 47.7092 236.128 46.7236 236.128C45.178 236.128 43.9348 235.702 42.994 234.848C42.0533 233.973 41.5829 232.816 41.5829 231.379V220.431H38.7605V217.265H41.5829V212.212H46.5556V217.265H50.0499V220.431H46.5556V230.941C46.5556 231.727 46.6788 232.288 46.9252 232.625C47.194 232.94 47.6532 233.097 48.3028 233.097C49.0196 233.097 49.8707 232.906 50.8563 232.524Z" fill="#2BC65F"/>
<path d="M68.9757 228.819C68.9757 230.66 69.0429 231.985 69.1773 232.794C69.3341 233.602 69.6365 234.298 70.0845 234.882C69.6141 235.219 69.0093 235.5 68.2701 235.724C67.5309 235.926 66.8589 236.027 66.2541 236.027C65.6941 236.027 65.2461 235.825 64.9101 235.421C64.5741 235.017 64.3277 234.377 64.1709 233.501C63.5662 234.444 62.8494 235.118 62.0206 235.522C61.1918 235.926 60.1166 236.128 58.795 236.128C57.1598 236.128 55.8383 235.69 54.8303 234.815C53.8223 233.916 53.3183 232.749 53.3183 231.311C53.3183 229.29 54.1583 227.786 55.8383 226.798C57.5406 225.787 60.2622 225.181 64.0029 224.979V223.227C64.0029 222.306 63.7565 221.622 63.2638 221.172C62.7934 220.723 62.0654 220.499 61.0798 220.499C60.363 220.499 59.6462 220.645 58.9294 220.937C58.235 221.206 57.3726 221.689 56.3423 222.385C56.2303 222.475 56.0735 222.52 55.8719 222.52C55.4687 222.52 55.0319 222.25 54.5615 221.711C54.1135 221.172 53.7103 220.465 53.3519 219.589C54.2255 218.826 55.4463 218.197 57.0142 217.703C58.6046 217.186 60.1726 216.928 61.7182 216.928C64.0477 216.928 65.8397 217.478 67.0941 218.579C68.3485 219.657 68.9757 221.206 68.9757 223.227V228.819ZM60.5422 232.895C61.2142 232.895 61.8302 232.659 62.3902 232.187C62.9726 231.716 63.5102 230.986 64.0029 229.998V227.505C62.1438 227.573 60.7326 227.887 59.7694 228.448C58.8286 228.987 58.3582 229.762 58.3582 230.773C58.3582 231.424 58.5598 231.94 58.963 232.322C59.3662 232.704 59.8926 232.895 60.5422 232.895Z" fill="#2BC65F"/>
<path d="M89.1811 217.265L82.0244 237.206C81.2628 239.317 80.3556 240.811 79.3028 241.686C78.25 242.562 76.8276 243 75.0357 243C73.9157 243 73.0085 242.775 72.3141 242.326C71.6197 241.877 71.2725 241.293 71.2725 240.575C71.2725 240.193 71.3397 239.845 71.4741 239.531C71.6085 239.239 71.8437 238.891 72.1797 238.486C72.7397 238.868 73.4229 239.059 74.2293 239.059C75.0805 239.059 75.7413 238.801 76.2117 238.284C76.7044 237.79 77.1748 236.858 77.6228 235.488L71.0373 217.265H76.1445L80.1428 229.661L84.074 217.265H89.1811Z" fill="#2BC65F"/>
</svg>
